<?xml version="1.0" encoding="UTF-8" standalone="no"?>
<!-- Created with Inkscape (http://www.inkscape.org/) -->

<svg
   width="210mm"
   height="297mm"
   viewBox="0 0 210 297"
   version="1.1"
   id="svg5"
   xmlns="http://www.w3.org/2000/svg"
   xmlns:svg="http://www.w3.org/2000/svg">
  <defs
     id="defs2">
    <rect
       x="411.59678"
       y="473.25646"
       width="427.51602"
       height="71.637727"
       id="rect169" />
    <rect
       x="156.75328"
       y="423.54975"
       width="63.481393"
       height="16.763597"
       id="rect113" />
  </defs>
  <g
     id="layer1">
    <rect
       style="fill:#000000;stroke-width:0.0346069"
       id="rect335"
       width="52.633213"
       height="9.3313351"
       x="134.31271"
       y="23.885111" />
  </g>
  <g
     id="layer3"
     transform="matrix(1.5477937,0,0,1.5477937,50.775925,-77.430155)">
    <path
       style="fill:#000000;fill-opacity:1;stroke:#000000;stroke-width:0.264583;stroke-opacity:1"
       id="path2332"
       d="m 16.194512,168.78758 a 2.8677185,2.8677185 0 0 1 -2.864251,2.86772 2.8677185,2.8677185 0 0 1 -2.871177,-2.86078 2.8677185,2.8677185 0 0 1 2.857309,-2.87464 2.8677185,2.8677185 0 0 1 2.878086,2.85383 l -2.867685,0.0139 z" />
    <path
       style="fill:#000000;fill-opacity:1;stroke:#000000;stroke-width:0.264583;stroke-opacity:1"
       id="path2332-3"
       d="m 61.195721,101.82066 a 2.8677185,2.8677185 0 0 1 -2.864251,2.86772 2.8677185,2.8677185 0 0 1 -2.871177,-2.86078 2.8677185,2.8677185 0 0 1 2.857309,-2.874636 2.8677185,2.8677185 0 0 1 2.878086,2.853836 l -2.867685,0.0139 z" />
    <path
       style="fill:#000000;fill-opacity:1;stroke:#000000;stroke-width:0.264583;stroke-opacity:1"
       id="path2332-2"
       d="m 25.848525,62.728519 a 2.8677185,2.8677185 0 0 1 -2.864252,2.867717 2.8677185,2.8677185 0 0 1 -2.871177,-2.860783 2.8677185,2.8677185 0 0 1 2.85731,-2.874633 2.8677185,2.8677185 0 0 1 2.878085,2.853832 l -2.867685,0.01387 z" />
    <path
       style="fill:#d40000;fill-opacity:1;stroke:none;stroke-width:0.264583;stroke-opacity:1"
       id="path2332-2-5-5"
       d="m -25.507213,105.41175 a 2.8677185,2.8677185 0 0 1 -2.864251,2.86772 2.8677185,2.8677185 0 0 1 -2.871177,-2.86079 2.8677185,2.8677185 0 0 1 2.857309,-2.87463 2.8677185,2.8677185 0 0 1 2.878086,2.85383 l -2.867685,0.0139 z" />
    <path
       style="fill:#000000;fill-opacity:1;stroke:#000000;stroke-width:0.264583;stroke-opacity:1"
       id="path2332-0"
       d="m 101.468,132.51231 a 2.8677185,2.8677185 0 0 1 -2.864252,2.86772 2.8677185,2.8677185 0 0 1 -2.871177,-2.86078 2.8677185,2.8677185 0 0 1 2.857309,-2.87464 2.8677185,2.8677185 0 0 1 2.87809,2.85384 l -2.867689,0.0139 z" />
    <path
       style="fill:#000000;fill-opacity:1;stroke:#000000;stroke-width:0.264583;stroke-opacity:1"
       id="path2332-0-1"
       d="m 41.861443,229.12619 a 2.8677185,2.8677185 0 0 1 -2.864251,2.86772 2.8677185,2.8677185 0 0 1 -2.871177,-2.86079 2.8677185,2.8677185 0 0 1 2.857309,-2.87463 2.8677185,2.8677185 0 0 1 2.878086,2.85383 l -2.867685,0.0139 z" />
    <path
       style="opacity:1;fill:none;fill-opacity:1;stroke:#000000;stroke-width:0.264583;stroke-opacity:1"
       d="M 23.318615,63.001945 57.804621,101.66897"
       id="path2555" />
    <path
       style="opacity:1;fill:none;fill-opacity:1;stroke:#000000;stroke-width:0.264583;stroke-opacity:1"
       d="M 58.7049,101.94371 39.243743,229.43447"
       id="path2559" />
    <path
       style="opacity:1;fill:none;fill-opacity:1;stroke:#000000;stroke-width:0.264583;stroke-opacity:1"
       d="M 58.004341,101.9885 13.593252,168.79339"
       id="path2561" />
    <path
       style="opacity:1;fill:none;fill-opacity:1;stroke:#000000;stroke-width:0.264583;stroke-opacity:1"
       d="M 39.496483,229.79119 13.920491,169.19271"
       id="path2563" />
    <path
       style="opacity:1;fill:none;fill-opacity:1;stroke:#000000;stroke-width:0.264583;stroke-opacity:1"
       d="M 98.865489,133.11628 13.781995,169.02131"
       id="path2565" />
    <path
       style="opacity:1;fill:#ff0000;fill-opacity:1;stroke:#d40000;stroke-width:0.263956;stroke-opacity:1"
       d="m -28.499465,105.1996 40.145859,61.12104"
       id="path3216" />
  </g>
  <g
     id="layer2"
     transform="matrix(0.78027913,0,0,0.78027913,-265.48874,-62.228423)">
    <text
       xml:space="preserve"
       transform="matrix(0.76423834,0,0,0.76423834,393.06868,-215.22167)"
       id="text111"
       style="white-space:pre;shape-inside:url(#rect113);display:inline;fill:#ffffff"><tspan
         x="156.75391"
         y="435.60883"
         id="tspan3577"><tspan
           style="font-family:Cantarell;-inkscape-font-specification:Cantarell"
           id="tspan3575">SSCANNER</tspan></tspan></text>
  </g>
</svg>
